<svg width="28" height="28" viewBox="0 0 28 28" fill="none" xmlns="http://www.w3.org/2000/svg">
<g filter="url(#filter0_i_555_93)">
<rect x="2" y="2" width="26" height="26" fill="black"/>
</g>
<rect x="0.5" y="0.5" width="25" height="25" fill="white" stroke="black"/>
<path d="M5.89 6.806C5.89 6.14 6.412 5.6 7.078 5.6C7.564 5.6 7.96 5.888 8.158 6.284L13.108 16.13L18.04 6.266C18.148 6.068 18.31 5.888 18.49 5.78C18.67 5.672 18.886 5.6 19.12 5.6C19.21 5.6 19.3 5.618 19.39 5.636C19.48 5.654 19.57 5.69 19.642 5.744C19.84 5.834 20.002 5.996 20.128 6.158C20.236 6.356 20.308 6.572 20.308 6.806V18.812C20.308 19.46 19.768 20 19.12 20C18.454 20 17.914 19.46 17.914 18.812V11.9L14.188 19.352C14.134 19.46 14.062 19.568 13.972 19.64C13.882 19.748 13.774 19.82 13.648 19.874C13.486 19.964 13.288 20 13.108 20C12.928 20 12.748 19.964 12.568 19.874C12.46 19.82 12.352 19.748 12.262 19.64C12.172 19.568 12.1 19.46 12.046 19.352L8.284 11.864V18.812C8.284 19.46 7.744 20 7.078 20C6.43 20 5.89 19.46 5.89 18.812V6.806Z" fill="black"/>
<defs>
<filter id="filter0_i_555_93" x="2" y="2" width="26" height="30" filterUnits="userSpaceOnUse" color-interpolation-filters="sRGB">
<feFlood flood-opacity="0" result="BackgroundImageFix"/>
<feBlend mode="normal" in="SourceGraphic" in2="BackgroundImageFix" result="shape"/>
<feColorMatrix in="SourceAlpha" type="matrix" values="0 0 0 0 0 0 0 0 0 0 0 0 0 0 0 0 0 0 127 0" result="hardAlpha"/>
<feOffset dy="4"/>
<feGaussianBlur stdDeviation="2"/>
<feComposite in2="hardAlpha" operator="arithmetic" k2="-1" k3="1"/>
<feColorMatrix type="matrix" values="0 0 0 0 0 0 0 0 0 0 0 0 0 0 0 0 0 0 0.25 0"/>
<feBlend mode="normal" in2="shape" result="effect1_innerShadow_555_93"/>
</filter>
</defs>
</svg>
